<svg preserveAspectRatio="none" width="100%" height="100%" overflow="visible" style="display: block;" viewBox="0 0 81.3936 55" fill="none" xmlns="http://www.w3.org/2000/svg">
<g id="Frame 2">
<g id="Vector">
<path d="M68.339 54.6839H63.2183V31.2931H72.2586C77.9482 31.2931 81.1724 34.0431 81.1724 38.8793C81.1724 41.9138 79.8764 44.0632 77.2844 45.3908L81.3936 54.6839H75.7988L72.2902 46.4971H68.339V54.6839ZM68.339 35.8449V42.0086H72.227C74.4712 42.0086 75.7672 40.8707 75.7672 38.8793C75.7672 36.9196 74.5344 35.8449 72.2586 35.8449H68.339Z" fill="white"/>
<path d="M0.632198 16.6898V15.0461H5.56323V16.6898C5.56323 17.9225 6.25863 19.0605 8.2184 19.0605C10.1149 19.0605 10.842 18.0806 10.842 16.5001V0.000135652H15.9626V16.8162C15.9626 20.8306 12.9914 23.8018 8.28162 23.8018C3.12932 23.8018 0.632198 20.7357 0.632198 16.6898Z" fill="white"/>
<path d="M23.122 23.3909H17.78L26.1249 0.000135652H31.1191L39.4323 23.3909H33.9955L32.3519 18.4599H24.7973L23.122 23.3909ZM27.9582 9.16679L26.2829 14.161H30.8978L29.2226 9.16679C28.9697 8.37656 28.6852 7.4599 28.5904 6.89093C28.4955 7.42829 28.2427 8.31334 27.9582 9.16679Z" fill="white"/>
<path d="M50.6536 23.3908H41.4869V0H50.3375C57.1967 0 61.9697 4.80459 61.9697 11.7586C61.9697 18.5862 57.3231 23.3908 50.6536 23.3908ZM49.8317 4.74137H46.6076V18.6494H50.1478C54.1938 18.6494 56.5645 16.0891 56.5645 11.7586C56.5645 7.33333 54.0674 4.74137 49.8317 4.74137Z" fill="white"/>
<path d="M14.8563 54.6839H0V31.2931H14.8563V36.0345H5.12069V40.6178H13.75V45.1063H5.12069V49.9425H14.8563V54.6839Z" fill="white"/>
<path d="M22.8376 54.6839H17.7802V31.2931H22.8376L32.6997 46.181V31.2931H37.7572V54.6839H32.6997L22.8376 39.8276V54.6839Z" fill="white"/>
<path d="M53.3405 49.0733C53.3405 52.3465 50.687 55 47.4138 55C44.1405 55 41.487 52.3465 41.487 49.0733C41.487 45.8 44.1405 43.1466 47.4138 43.1466C50.687 43.1466 53.3405 45.8 53.3405 49.0733Z" fill="var(--fill-0, #007EFF)"/>
</g>
</g>
</svg>
