<svg preserveAspectRatio="none" width="100%" height="100%" overflow="visible" style="display: block;" viewBox="0 0 55 55" fill="none" xmlns="http://www.w3.org/2000/svg">
<g id="Frame 8">
<rect width="55" height="55" rx="27.5" fill="var(--fill-0, #F4F5F6)"/>
<path id="Vector" d="M27.501 24.5C26.7054 24.5 25.9423 24.8161 25.3797 25.3787C24.8171 25.9413 24.501 26.7044 24.501 27.5C24.501 28.2956 24.8171 29.0587 25.3797 29.6213C25.9423 30.1839 26.7054 30.5 27.501 30.5C28.2966 30.5 29.0597 30.1839 29.6223 29.6213C30.1849 29.0587 30.501 28.2956 30.501 27.5C30.501 26.7044 30.1849 25.9413 29.6223 25.3787C29.0597 24.8161 28.2966 24.5 27.501 24.5ZM27.501 22.5C28.8271 22.5 30.0989 23.0268 31.0365 23.9645C31.9742 24.9021 32.501 26.1739 32.501 27.5C32.501 28.8261 31.9742 30.0979 31.0365 31.0355C30.0989 31.9732 28.8271 32.5 27.501 32.5C26.1749 32.5 24.9031 31.9732 23.9655 31.0355C23.0278 30.0979 22.501 28.8261 22.501 27.5C22.501 26.1739 23.0278 24.9021 23.9655 23.9645C24.9031 23.0268 26.1749 22.5 27.501 22.5ZM34.001 22.25C34.001 22.5815 33.8693 22.8995 33.6349 23.1339C33.4005 23.3683 33.0825 23.5 32.751 23.5C32.4195 23.5 32.1015 23.3683 31.8671 23.1339C31.6327 22.8995 31.501 22.5815 31.501 22.25C31.501 21.9185 31.6327 21.6005 31.8671 21.3661C32.1015 21.1317 32.4195 21 32.751 21C33.0825 21 33.4005 21.1317 33.6349 21.3661C33.8693 21.6005 34.001 21.9185 34.001 22.25ZM27.501 19.5C25.027 19.5 24.623 19.507 23.472 19.558C22.688 19.595 22.162 19.7 21.674 19.89C21.2656 20.0399 20.8964 20.2803 20.594 20.593C20.281 20.8954 20.0404 21.2646 19.89 21.673C19.7 22.163 19.595 22.688 19.559 23.471C19.507 24.575 19.5 24.961 19.5 27.5C19.5 29.975 19.507 30.378 19.558 31.529C19.595 32.312 19.7 32.839 19.889 33.326C20.059 33.761 20.259 34.074 20.591 34.406C20.928 34.742 21.241 34.943 21.671 35.109C22.165 35.3 22.691 35.406 23.471 35.442C24.575 35.494 24.961 35.5 27.5 35.5C29.975 35.5 30.378 35.493 31.529 35.442C32.311 35.405 32.837 35.3 33.326 35.111C33.734 34.9603 34.1031 34.7201 34.406 34.408C34.743 34.072 34.944 33.759 35.11 33.328C35.3 32.836 35.406 32.31 35.442 31.528C35.494 30.425 35.5 30.038 35.5 27.5C35.5 25.026 35.493 24.622 35.442 23.471C35.405 22.689 35.299 22.161 35.11 21.673C34.9593 21.265 34.719 20.896 34.407 20.593C34.1047 20.2798 33.7355 20.0392 33.327 19.889C32.837 19.699 32.311 19.594 31.529 19.558C30.426 19.506 30.04 19.5 27.5 19.5M27.5 17.5C30.217 17.5 30.556 17.51 31.623 17.56C32.687 17.61 33.413 17.777 34.05 18.025C34.71 18.279 35.266 18.623 35.822 19.178C36.3305 19.6779 36.724 20.2826 36.975 20.95C37.222 21.587 37.39 22.313 37.44 23.378C37.487 24.444 37.5 24.783 37.5 27.5C37.5 30.217 37.49 30.556 37.44 31.622C37.39 32.687 37.222 33.412 36.975 34.05C36.7246 34.7178 36.3311 35.3226 35.822 35.822C35.322 36.3303 34.7173 36.7238 34.05 36.975C33.413 37.222 32.687 37.39 31.623 37.44C30.556 37.487 30.217 37.5 27.5 37.5C24.783 37.5 24.444 37.49 23.377 37.44C22.313 37.39 21.588 37.222 20.95 36.975C20.2823 36.7245 19.6775 36.3309 19.178 35.822C18.6694 35.3222 18.276 34.7175 18.025 34.05C17.777 33.413 17.61 32.687 17.56 31.622C17.512 30.556 17.5 30.217 17.5 27.5C17.5 24.783 17.51 24.444 17.56 23.378C17.61 22.313 17.777 21.588 18.025 20.95C18.2752 20.2822 18.6688 19.6773 19.178 19.178C19.6777 18.6692 20.2824 18.2757 20.95 18.025C21.587 17.777 22.312 17.61 23.377 17.56C24.445 17.513 24.784 17.5 27.501 17.5" fill="var(--fill-0, #191921)"/>
</g>
</svg>
