<svg preserveAspectRatio="none" width="100%" height="100%" overflow="visible" style="display: block;" viewBox="0 0 55 55" fill="none" xmlns="http://www.w3.org/2000/svg">
<g id="Frame 7">
<rect width="55" height="55" rx="27.5" fill="var(--fill-0, #F4F5F6)"/>
<path id="Vector" d="M21.3559 19.7232C21.3556 20.3125 21.1212 20.8776 20.7043 21.2941C20.2873 21.7107 19.722 21.9445 19.1327 21.9442C18.5434 21.9439 17.9783 21.7095 17.5618 21.2926C17.1452 20.8756 16.9114 20.3103 16.9117 19.721C16.912 19.1317 17.1464 18.5666 17.5633 18.1501C17.9803 17.7335 18.5456 17.4997 19.1349 17.5C19.7242 17.5003 20.2893 17.7347 20.7058 18.1516C21.1224 18.5686 21.3562 19.1339 21.3559 19.7232ZM21.4226 23.5897H16.9784V37.5H21.4226V23.5897ZM28.4444 23.5897H24.0224V37.5H28.4V30.2004C28.4 26.134 33.6997 25.7562 33.6997 30.2004V37.5H38.0883V28.6894C38.0883 21.8342 30.2443 22.0897 28.4 25.4562L28.4444 23.5897Z" fill="var(--fill-0, #191921)"/>
</g>
</svg>
