<svg preserveAspectRatio="none" width="100%" height="100%" overflow="visible" style="display: block;" viewBox="0 0 55 55" fill="none" xmlns="http://www.w3.org/2000/svg">
<g id="Frame 9">
<rect width="55" height="55" rx="27.5" fill="var(--fill-0, #F4F5F6)"/>
<path id="Vector" d="M32.6339 20.6333C31.871 19.7662 31.4506 18.6527 31.4509 17.5H28.0022V31.2778C27.9756 32.0234 27.6595 32.7296 27.1203 33.2477C26.5811 33.7658 25.861 34.0555 25.1116 34.0556C23.5268 34.0556 22.2098 32.7667 22.2098 31.1667C22.2098 29.2556 24.0625 27.8222 25.971 28.4111V24.9C22.1205 24.3889 18.75 27.3667 18.75 31.1667C18.75 34.8667 21.8304 37.5 25.1004 37.5C28.6049 37.5 31.4509 34.6667 31.4509 31.1667V24.1778C32.8493 25.1776 34.5283 25.7141 36.25 25.7111V22.2778C36.25 22.2778 34.1518 22.3778 32.6339 20.6333Z" fill="var(--fill-0, #191921)"/>
</g>
</svg>
