<svg preserveAspectRatio="none" width="100%" height="100%" overflow="visible" style="display: block;" viewBox="0 0 55 55" fill="none" xmlns="http://www.w3.org/2000/svg">
<g id="Frame 10">
<rect width="55" height="55" rx="27.5" fill="var(--fill-0, #F4F5F6)"/>
<path id="Vector" d="M27.5916 17.5H27.75C29.2128 17.5053 36.6245 17.5587 38.6229 18.0961C39.227 18.2602 39.7775 18.5799 40.2194 19.0233C40.6613 19.4667 40.979 20.0183 41.1409 20.6231C41.3206 21.2993 41.447 22.1944 41.5324 23.1179L41.5502 23.303L41.5893 23.7657L41.6036 23.9508C41.7192 25.5772 41.7335 27.1005 41.7353 27.4333V27.5667C41.7335 27.912 41.7175 29.5384 41.5893 31.2325L41.5751 31.4194L41.5591 31.6045C41.4701 32.6223 41.3384 33.6331 41.1409 34.3769C40.979 34.9817 40.6613 35.5333 40.2194 35.9767C39.7775 36.4201 39.227 36.7398 38.6229 36.9039C36.5586 37.4591 28.7127 37.4982 27.6255 37.5H27.3728C26.8229 37.5 24.5487 37.4893 22.1641 37.4075L21.8616 37.3968L21.7068 37.3897L21.4025 37.3772L21.0982 37.3648C19.1229 37.2776 17.242 37.137 16.3753 36.9021C15.7714 36.7382 15.2211 36.4188 14.7792 35.9757C14.3374 35.5326 14.0195 34.9813 13.8573 34.3769C13.6598 33.6349 13.5281 32.6223 13.4391 31.6045L13.4249 31.4176L13.4107 31.2325C13.3223 30.0268 13.2737 28.8184 13.2647 27.6094L13.2647 27.3906C13.2683 27.008 13.2825 25.6858 13.3786 24.2266L13.3911 24.0433L13.3964 23.9508L13.4107 23.7657L13.4498 23.303L13.4676 23.1179C13.553 22.1944 13.6794 21.2975 13.8591 20.6231C14.021 20.0183 14.3387 19.4667 14.7806 19.0233C15.2225 18.5799 15.773 18.2602 16.3771 18.0961C17.2437 17.8648 19.1247 17.7224 21.1 17.6335L21.4025 17.621L21.7086 17.6103L21.8616 17.605L22.1659 17.5925C23.8595 17.5381 25.5538 17.5078 27.2482 17.5018L27.5916 17.5ZM24.6537 23.2123V31.786L32.0511 27.5009L24.6537 23.2123Z" fill="var(--fill-0, #191921)"/>
</g>
</svg>
