<svg preserveAspectRatio="none" width="100%" height="100%" overflow="visible" style="display: block;" viewBox="0 0 128 55" fill="none" xmlns="http://www.w3.org/2000/svg">
<g id="Vector">
<path d="M67.995 38.5027H63.0114L70.605 16.4355H76.5983L84.1811 38.5027H79.1975L73.6876 21.4782H73.5157L67.995 38.5027ZM70.8078 29.8288H76.3902L77.5689 33.4708H69.6268L70.8078 29.8288Z" fill="#0F6698"/>
<path d="M105.023 16.4355V38.5027H102.445L90.459 21.1765H90.2442V38.5027H87.5805V16.4355H90.1582L102.188 33.8048H102.403V16.4355H105.023Z" fill="#0F6698"/>
<path d="M128 16.4355V38.5027H123.983L114.413 24.6137H114.252V38.5027H109.601V16.4355H113.683L123.177 30.3137H123.371V16.4355H128Z" fill="#0F6698"/>
<path d="M42.8477 27.8139C42.8477 36.1927 36.077 42.9851 27.725 42.9851C19.3729 42.9851 12.6022 36.1927 12.6022 27.8139C12.6022 19.4351 19.3729 12.6427 27.725 12.6427C36.077 12.6427 42.8477 19.4351 42.8477 27.8139Z" fill="#0F6698"/>
<path d="M23.9443 46.7779C49.779 46.7779 46.6284 22.7568 46.6284 22.7568C51.6693 24.6532 61.121 37.2956 52.2994 48.6743C45.1845 57.8516 30.2454 56.8921 23.9443 46.7779Z" fill="#1899CF"/>
<path d="M31.9739 8.22207C6.13924 8.22207 9.28981 32.2432 9.28981 32.2432C4.24889 30.3468 -5.20282 17.7044 3.61878 6.32567C10.7337 -2.8516 25.6728 -1.89208 31.9739 8.22207Z" fill="var(--fill-0, #97C939)"/>
</g>
</svg>
