<svg preserveAspectRatio="none" width="100%" height="100%" overflow="visible" style="display: block;" viewBox="0 0 83.6957 55" fill="none" xmlns="http://www.w3.org/2000/svg">
<g id="Frame" clip-path="url(#clip0_0_22)">
<path id="Vector" d="M31.9977 40.1248C31.9977 40.1388 32.009 40.1502 32.0232 40.1502H32.549C33.3184 40.1502 33.5658 39.8115 33.5658 39.1815C33.5658 38.5621 33.2047 38.2811 32.5681 38.2811H32.0232C32.0092 38.2811 31.9977 38.2924 31.9977 38.3065V40.1248ZM24.4178 40.2022C24.4178 40.2162 24.4291 40.2276 24.4432 40.2276H24.893C25.8626 40.2276 26.0718 39.8013 26.0718 39.2787C26.0718 38.6107 25.7485 38.3105 25.0069 38.3105H24.4434C24.4294 38.3105 24.418 38.3217 24.418 38.3358L24.4178 40.2022ZM30.5762 37.1145H26.146C26.1162 37.1145 26.1117 37.1562 26.1409 37.1633C27.004 37.3706 27.5727 37.9355 27.5727 39.0751C27.5727 40.3437 26.9166 41.438 24.9688 41.438H24.443C24.429 41.438 24.4175 41.4493 24.4175 41.4634V43.5019C24.4175 43.5159 24.4287 43.5274 24.443 43.5274H30.5762C30.5902 43.5274 30.6016 43.516 30.6016 43.5019V37.1401C30.6014 37.1258 30.5902 37.1145 30.5762 37.1145ZM55.998 38.9687C55.998 38.1631 56.4974 37.4836 57.2873 37.1633C57.3133 37.1526 57.3069 37.115 57.2788 37.115H51.1651C51.1366 37.115 51.1306 37.1537 51.1572 37.1639C51.6144 37.3369 51.9212 37.5865 52.0604 37.7623C52.0679 37.7718 52.0668 37.7846 52.0592 37.794L51.1893 38.8483C51.1791 38.8605 51.1614 38.8616 51.1512 38.8491C50.9803 38.6385 50.6025 38.2429 49.9247 38.2429C49.45 38.2429 49.1834 38.5141 49.1834 38.8525C49.1834 39.9472 52.2438 39.7823 52.2438 41.9419C52.2438 42.5273 51.9629 43.0993 51.4067 43.4823C51.3863 43.4964 51.3949 43.5274 51.4197 43.5274H56.1916C56.2175 43.5274 56.2255 43.493 56.2029 43.48C55.9761 43.3477 55.8138 43.2143 55.7259 43.1181C55.7179 43.1094 55.7181 43.0969 55.7247 43.0872L56.5224 41.9093C56.5313 41.8961 56.5488 41.8934 56.56 41.9047C56.8519 42.1984 57.4236 42.6975 58.212 42.6975C58.7917 42.6975 59.0671 42.3972 59.0671 42.0389C59.0669 40.9633 55.998 41.109 55.998 38.9687ZM32.7008 41.6413C32.5773 41.3995 32.3969 41.3215 32.0924 41.3215H31.9976V43.5015C31.9976 43.5155 32.0088 43.527 32.023 43.527H33.6018C33.6205 43.527 33.6329 43.5072 33.6245 43.4903L32.7008 41.6413ZM39.2396 37.1398V43.5018C39.2396 43.5158 39.2283 43.5271 39.2142 43.5271H35.3723C35.3631 43.5271 35.3545 43.522 35.3501 43.5138L34.5157 41.9801C34.2025 41.409 33.9838 41.1571 33.6323 40.9828V40.9439C34.4112 40.789 35.0385 40.2368 35.0385 39.0556C35.0385 37.9628 34.5402 37.3776 33.6435 37.1633C33.6146 37.1562 33.6186 37.1145 33.6485 37.1145H39.2143C39.2282 37.1145 39.2396 37.1258 39.2396 37.1398ZM47.372 43.4583C47.1642 43.3334 47.0146 43.2088 46.9314 43.1177C46.9234 43.1091 46.9235 43.0966 46.9302 43.0869L47.7283 41.9086C47.7371 41.8954 47.7547 41.8928 47.7659 41.904C48.0579 42.198 48.6291 42.6971 49.418 42.6971C49.9976 42.6971 50.2731 42.397 50.2731 42.0385C50.2731 40.9639 47.2038 41.1088 47.2038 38.9688C47.2038 38.1635 47.7032 37.4833 48.4937 37.1629C48.5199 37.1523 48.5133 37.1146 48.4854 37.1146H43.2088C43.1949 37.1146 43.1835 37.1258 43.1835 37.1401V38.2561C43.1835 38.2701 43.1723 38.2814 43.158 38.2814H40.709C40.695 38.2814 40.6836 38.2927 40.6836 38.3069V39.7666C40.6836 39.7805 40.6949 39.792 40.709 39.792H42.8058C42.8198 39.792 42.8313 39.8033 42.8313 39.8175V40.9868C42.8313 41.0008 42.82 41.0123 42.8058 41.0123H40.709C40.695 41.0123 40.6836 41.0235 40.6836 41.0377V42.6043C40.6836 42.6183 40.6949 42.6298 40.709 42.6298H43.2713C43.2852 42.6298 43.2967 42.641 43.2967 42.6551V43.4907C43.2967 43.5111 43.3124 43.5278 43.3328 43.5278C43.6952 43.5278 46.6723 43.5278 47.3537 43.5278C47.3911 43.527 47.4039 43.4775 47.372 43.4583ZM21.5472 43.527H23.0189C23.0329 43.527 23.0444 43.5158 23.0444 43.5015V37.1397C23.0444 37.1257 23.0332 37.1142 23.0189 37.1142H21.5472C21.5332 37.1142 21.5217 37.1255 21.5217 37.1397V43.5015C21.5217 43.5158 21.5332 43.527 21.5472 43.527ZM59.5064 37.1634C59.9636 37.3366 60.2707 37.5862 60.4094 37.762C60.4169 37.7716 60.4158 37.7844 60.4082 37.7938L59.5386 38.8481C59.5284 38.8604 59.5106 38.8614 59.5006 38.8489C59.3297 38.6383 58.9519 38.2422 58.2741 38.2422C57.799 38.2422 57.5328 38.5134 57.5328 38.8519C57.5328 39.9465 60.5931 39.7816 60.5931 41.9412C60.5931 42.527 60.3123 43.099 59.7557 43.4816C59.7353 43.4956 59.7439 43.5266 59.7685 43.5266H62.1484C62.1624 43.5266 62.1739 43.5154 62.1739 43.5012V37.1397C62.1739 37.1257 62.1627 37.1142 62.1484 37.1142H59.5142C59.4857 37.1146 59.4798 37.1533 59.5064 37.1634Z" fill="var(--fill-0, #F9DA97)"/>
<path id="Vector_2" d="M62.1616 5.3116C62.1696 5.30717 62.1748 5.29864 62.1748 5.28942V0.627269C62.1748 0.608506 62.1548 0.596225 62.1379 0.604583L50.3127 6.52452C50.3066 6.5252 50.3013 6.52571 50.2951 6.52639L28.8767 1.1487C28.8607 1.14477 28.8451 1.15671 28.8451 1.17326V7.05242C28.8451 7.06385 28.8526 7.07374 28.8636 7.07681L39.3049 9.977C39.3208 9.98144 39.3282 9.99968 39.3201 10.014L28.8607 28.2444C28.8528 28.258 28.8592 28.2756 28.8742 28.2809L50.2925 35.8814C50.2999 35.884 50.3079 35.8832 50.3147 35.8789L62.163 28.2781C62.1703 28.2736 62.1748 28.2656 62.1748 28.2568V22.8639C62.1748 22.844 62.153 22.8317 62.1359 22.8423L54.1164 27.8091C54.0996 27.8195 54.0777 27.8074 54.0777 27.7877L54.0756 21.059L54.0776 21.0162L54.1157 20.9906L62.1028 16.0901C62.1103 16.0856 62.1148 16.0773 62.1148 16.0687L62.1202 11.5725C62.1202 11.553 62.0994 11.5408 62.0823 11.5505L54.1135 16.1216C54.0968 16.1311 54.0756 16.1191 54.0756 16.0996L54.0697 9.8257C54.0695 9.8165 54.0744 9.80796 54.0828 9.80353L62.1616 5.3116ZM48.9119 29.4709C48.9119 29.4888 48.8936 29.5012 48.8771 29.4945L38.9671 25.4722C38.952 25.466 38.9466 25.4474 38.9559 25.4342L48.8659 11.3443C48.8803 11.324 48.912 11.334 48.912 11.3588L48.9119 29.4709Z" fill="var(--fill-0, #90D7F0)"/>
<path id="Vector_3" d="M21.5677 5.59284L21.5217 34.5913C21.5217 34.6129 21.5473 34.6247 21.5637 34.6103L27.4591 29.4853C27.4645 29.4805 27.4677 29.4735 27.4677 29.4661L27.5659 1.46781C27.5659 1.44734 27.543 1.43523 27.5261 1.44682L21.5785 5.57204C21.5717 5.57681 21.5677 5.58448 21.5677 5.59284Z" fill="var(--fill-0, #90D7F0)"/>
<path id="Vector_4" d="M83.6957 52.0068H0V54.3981H83.6957V52.0068Z" fill="var(--fill-0, #90D7F0)"/>
</g>
<defs>
<clipPath id="clip0_0_22">
<rect width="83.6957" height="55" fill="white"/>
</clipPath>
</defs>
</svg>
