<svg preserveAspectRatio="none" width="100%" height="100%" overflow="visible" style="display: block;" viewBox="0 0 87.5 55" fill="none" xmlns="http://www.w3.org/2000/svg">
<g id="Frame" clip-path="url(#clip0_0_30)">
<path id="Vector" d="M87.5 51.875H0V54.375H87.5V51.875Z" fill="var(--fill-0, #6EBE44)"/>
<path id="Vector_2" d="M63.088 30.2231H50.0551C49.5551 30.2231 49.0081 30.135 48.4151 29.9591C47.8228 29.782 47.2734 29.4927 46.7689 29.0902C46.2639 28.6874 45.8425 28.1639 45.5041 27.52C45.1658 26.8761 44.9975 26.0866 44.9975 25.151V12.1177C44.9975 11.8676 45.0438 11.6317 45.136 11.4092C45.2289 11.1867 45.356 10.9924 45.5184 10.8258C45.6805 10.6591 45.8726 10.5294 46.0948 10.4366C46.3173 10.3447 46.5578 10.2972 46.8175 10.2972H63.0879V13.9104H48.6104V25.1511C48.6104 25.6241 48.735 25.9843 48.9853 26.2356C49.2354 26.4846 49.6014 26.61 50.0824 26.61H63.088V30.2231ZM61.4624 22.0802H50.0551V18.4399H61.4624V22.0802Z" fill="var(--fill-0, black)"/>
<path id="Vector_3" d="M84.9356 28.6825C84.9356 28.9415 84.8878 29.1828 84.7896 29.4056C84.6926 29.6273 84.5625 29.8195 84.4014 29.9824C84.2385 30.1435 84.0471 30.2708 83.8246 30.3635C83.6017 30.4568 83.3659 30.5024 83.1156 30.5024C82.894 30.5024 82.6686 30.4609 82.4425 30.3769C82.2154 30.2946 82.0131 30.1603 81.8376 29.9744L68.6371 16.191V30.225H65.0244V11.8421C65.0244 11.4714 65.1289 11.1357 65.3379 10.8348C65.5465 10.5342 65.8117 10.3096 66.1359 10.1614C66.4787 10.0217 66.8312 9.98683 67.1927 10.0565C67.5537 10.1257 67.8634 10.2949 68.1229 10.564L81.3237 24.334V10.2999H84.9356V28.6825Z" fill="var(--fill-0, black)"/>
<path id="Vector_4" d="M47.1889 41.5935L45.1901 41.5814L43.6882 39.0852H39.4548L40.3963 37.5442H42.7606L41.2055 34.97L37.1819 41.5814H35.1831L40.0295 33.5199C40.1513 33.31 40.322 33.119 40.5399 32.9447C40.8005 32.7441 41.0364 32.6446 41.2442 32.6446C41.4709 32.6446 41.7064 32.74 41.9506 32.9309C42.1589 33.0975 42.3291 33.2931 42.4597 33.5199L47.1889 41.5935Z" fill="var(--fill-0, black)"/>
<path id="Vector_5" d="M57.4344 37.5836C57.4344 39.02 57.0045 40.071 56.1415 40.732C55.3835 41.3071 54.2603 41.5942 52.7714 41.5942H52.2354C50.7453 41.5942 49.622 41.3071 48.8636 40.732C48.001 40.0709 47.5708 39.02 47.5708 37.5836V32.6706H49.125V37.5836C49.125 38.6549 49.4953 39.3646 50.237 39.713C50.715 39.9304 51.56 40.0404 52.7714 40.0404C53.7813 40.0404 54.5221 39.8867 54.9914 39.5829C55.5836 39.1992 55.8804 38.5335 55.8804 37.5837V32.6708H57.4343L57.4344 37.5836Z" fill="var(--fill-0, black)"/>
<path id="Vector_6" d="M68.6596 37.033C68.6596 38.3497 68.2353 39.4369 67.3858 40.2999C66.5366 41.1611 65.4625 41.5939 64.1655 41.5939H59.1358V32.6694H64.1655C65.481 32.6694 66.5573 33.0706 67.3991 33.8719C68.24 34.6732 68.6596 35.7276 68.6596 37.033ZM67.105 37.164C67.105 36.301 66.828 35.5976 66.2748 35.0477C65.7224 34.4991 65.0194 34.225 64.1655 34.225H60.677V40.0396H64.1655C65.0193 40.0396 65.7224 39.7735 66.2748 39.2414C66.8279 38.7116 67.105 38.0177 67.105 37.164Z" fill="var(--fill-0, black)"/>
<path id="Vector_7" d="M71.73 32.6694H70.1758V41.5944H71.73V32.6694Z" fill="var(--fill-0, black)"/>
<path id="Vector_8" d="M85.0006 37.033C85.0006 38.3497 84.578 39.4369 83.7326 40.2999C82.8881 41.1611 81.8122 41.5939 80.506 41.5939H78.0102C76.7125 41.5939 75.6391 41.1611 74.7904 40.2999C73.94 39.4369 73.5156 38.3497 73.5156 37.033C73.5156 35.7276 73.9354 34.6732 74.7765 33.8719C75.6165 33.0706 76.6951 32.6694 78.0101 32.6694H80.506C81.8294 32.6694 82.9089 33.0706 83.7459 33.8719C84.5825 34.6732 85.0006 35.7276 85.0006 37.033ZM83.4581 37.164C83.4581 36.301 83.1824 35.5976 82.6286 35.0477C82.075 34.4991 81.3681 34.225 80.506 34.225H78.0102C77.1566 34.225 76.4539 34.4991 75.8999 35.0477C75.3475 35.5976 75.0709 36.301 75.0709 37.164C75.0709 38.0177 75.3475 38.7116 75.8999 39.2414C76.4539 39.7735 77.1566 40.0396 78.0102 40.0396H80.506C81.3682 40.0396 82.0751 39.7735 82.6286 39.2414C83.1824 38.7116 83.4581 38.0177 83.4581 37.164Z" fill="var(--fill-0, black)"/>
<path id="Vector_9" d="M33.8863 27.5986H29.5776V41.5965H33.8863V27.5986Z" fill="var(--fill-0, black)"/>
<path id="Vector_10" d="M41.1855 10.3049V10.2982H39.6384V20.4496C39.6384 23.9006 36.8306 26.7087 33.3796 26.7091H30.1308C26.6788 26.7091 23.8713 23.9011 23.8713 20.4496L23.8339 10.2982C23.5863 1.23973 5.28306 0.0346987 2.19879 1.87402C-0.510615 3.48835 3.42658 5.92785 3.5965 6.18439C1.66946 9.13765 5.64865 12.1321 6.20013 12.6443C5.15245 14.4709 7.18944 16.8096 9.38638 18.4149C12.325 20.9098 18.9393 22.5627 18.9393 22.5627C18.9393 22.5627 18.9829 22.2588 18.9829 20.2618C18.2995 20.1838 15.4923 19.2964 15.1015 19.1716C14.1538 18.8333 13.389 18.5336 13.1179 18.4257C12.3992 18.1047 11.7932 17.7861 11.3398 17.5134C9.72963 16.5491 7.94198 14.9034 8.71556 13.943C9.0161 13.1517 10.745 13.8704 11.6974 14.0702C12.9561 14.33 14.131 13.8734 14.1331 13.8574C10.9619 13.2144 8.02499 11.7512 6.52321 9.8825C5.7161 8.87723 6.18865 7.99537 6.46654 8.13467C8.30936 9.05612 10.2028 9.84947 10.5227 9.93469C12.5299 10.8581 15.4936 11.0029 16.943 10.1215C16.9586 10.1223 17.0026 10.0975 17.0064 10.0783C16.4015 10.069 15.8308 9.97749 15.1529 9.85915C14.7063 9.76686 11.8281 8.91345 11.0771 8.55714C9.23661 7.68117 7.37633 6.97304 6.20393 5.59839C5.53151 4.80714 5.81359 4.47976 5.92943 4.31772C7.7486 2.8365 12.2977 4.39415 13.3895 4.74337C14.5761 5.12534 15.7506 5.6811 16.9238 6.22759C20.4189 7.85449 20.507 10.8057 20.5494 11.7707L20.1855 21.8382C20.1855 25.21 21.1963 27.676 23.2201 29.2277C24.9999 30.5785 27.638 31.2517 31.1344 31.2517H32.3919C35.8859 31.2517 38.5243 30.5785 40.3035 29.2277C42.3276 27.676 43.3383 25.2101 43.3383 21.8382V10.3049H41.1855Z" fill="var(--fill-0, black)"/>
<g id="Vector_11">
</g>
<path id="Vector_12" d="M38.3809 8.49299V6.55507C38.3809 6.29066 38.3604 6.03084 38.3297 5.7748H33.932V4.42319H38.3469C38.3465 4.4215 38.3461 4.4194 38.3461 4.4173C38.0866 2.28084 36.2705 0.625 34.064 0.625H29.4485C27.2864 0.625 25.5009 2.21577 25.186 4.28979C25.1797 4.33469 25.1714 4.37839 25.1659 4.42329H29.5802V5.7749H25.1822C25.152 6.03094 25.1319 6.29076 25.1319 6.55518V7.98441V8.49309H29.5802V9.8438H25.1319V10.962V12.5621H29.5802V13.9136H25.1319V15.9423V17.2489V19.9844V20.4503C25.1319 23.2121 27.3706 25.4505 30.1321 25.4505H33.3806C36.1421 25.4505 38.3809 23.2116 38.3809 20.4503V15.9423V13.9136H33.932V12.562H38.3809V9.8438H33.932V8.49299H38.3809Z" fill="var(--fill-0, #6EBE44)"/>
</g>
<defs>
<clipPath id="clip0_0_30">
<rect width="87.5" height="55" fill="white"/>
</clipPath>
</defs>
</svg>
