<svg preserveAspectRatio="none" width="100%" height="100%" overflow="visible" style="display: block;" viewBox="0 0 75.5224 55" fill="none" xmlns="http://www.w3.org/2000/svg">
<g id="Frame" clip-path="url(#clip0_0_45)">
<path id="Vector" fill-rule="evenodd" clip-rule="evenodd" d="M8.86198 17.498C10.4769 19.3118 16.3622 23.5472 18.8378 23.2799C19.2426 27.9374 21.3462 30.3768 24.6185 31.7941C26.2014 32.4793 28.8642 33.0001 30.9667 32.3289C34.7761 31.1133 36.391 28.7996 37.8506 25.2198C38.571 23.4549 38.9067 20.6179 38.3097 18.3394C36.0272 9.6259 27.8686 3.18016 19.2645 0.75565C13.2732 -0.931931 4.26991 0.335446 0.776479 3.28315C0.338652 3.65307 0.148523 4.07956 0 4.86968C0.0101596 6.10418 0.987407 7.06064 1.74889 7.56014C2.09287 7.78548 2.46441 7.81981 2.74307 8.09495C3.00529 8.4842 2.74259 9.15438 2.89643 9.7767C3.06479 10.4614 3.31539 11.209 3.6613 11.7646C4.03963 12.3715 4.73628 13.0682 5.34392 13.4463L8.86198 17.498ZM4.68064 4.28217C5.22104 3.52639 7.70045 2.68984 8.70913 2.51432C10.9622 2.12216 13.4207 2.58104 15.0148 2.74351C22.8634 4.47172 29.8773 8.64132 33.9498 14.44C34.6788 15.4787 35.1762 16.7326 35.556 18.1097C35.7364 18.7644 35.7088 19.4714 35.7093 20.2504C35.7093 24.0617 33.898 27.1913 31.5787 28.6598C26.423 31.9237 19.2833 26.6588 21.7119 20.6329C22.3733 18.9922 23.2122 18.0029 25.0007 17.498C27.4932 16.7954 30.5894 18.7988 29.5903 21.0913C29.2324 21.9123 28.9285 22.0236 28.4322 22.1048C27.3432 22.0695 26.7365 21.2823 25.6891 21.4738C23.9006 21.8002 22.4357 23.6555 23.7772 25.5249C24.4052 26.4011 26.3645 26.8344 27.8308 26.3663C29.6228 25.7948 30.9223 24.481 31.5023 22.6967C31.8773 21.5444 31.5526 20.0961 31.1966 19.2567C30.2082 16.9303 26.84 14.6055 23.318 15.8926C21.6983 16.485 20.3186 17.7906 19.6471 19.3331C19.4429 19.9443 19.2388 20.5565 19.0351 21.1677C18.3713 22.0927 16.9645 21.3123 16.2441 20.849C14.8799 19.9714 11.6046 17.1315 11.2331 16.6571C11.5272 14.6393 14.6636 16.2722 16.0211 16.1862C17.1507 15.9173 17.5813 15.0005 17.5813 14.9749C13.055 14.9986 9.23262 13.5687 6.5679 11.5354C5.90995 11.0335 6.08557 10.0611 6.41502 9.7767C7.7227 9.48807 11.2336 10.2864 11.6922 10.312C14.7032 11.003 19.6766 10.7076 21.4062 9.08912C21.4313 9.08912 21.4826 9.03789 21.4826 9.0122C20.6505 9.17129 19.844 9.21004 18.8818 9.24148C18.2451 9.24148 14.0608 8.89087 12.934 8.61669C10.1629 7.94069 7.41405 7.5026 5.42036 5.95477C4.27571 5.06552 4.56744 4.53555 4.68064 4.28217ZM25.6127 0.297246C25.6562 0.53902 25.6799 0.519194 25.7655 0.679249C26.6059 1.01967 27.7936 0.839307 28.9015 0.985336C29.9769 1.12605 31.3059 1.24017 32.4201 1.59654C32.883 1.74451 41.3837 4.3634 43.5989 9.30526C44.252 10.7622 46.8771 15.3796 43.7402 23.538C41.2081 30.1249 37.288 37.5551 28.6852 44.3016C26.3302 46.1488 21.4801 47.1086 17.7347 45.8606C15.2025 45.0173 13.5441 43.4559 10.7744 42.8026C9.78894 42.57 8.69707 43.0139 8.09715 43.2615C6.11508 44.0816 3.76435 46.037 4.88481 49.1478C5.09235 49.7251 5.38455 50.416 5.7266 50.9064C9.10587 55.753 18.7975 52.7438 23.1652 50.83C24.2755 50.3431 25.3171 49.9228 26.3011 49.301C35.6083 43.425 41.2081 33.811 46.7997 24.1493C47.3918 23.126 52.5268 12.6398 53.072 11.7646C55.1077 8.49487 59.4038 2.50029 65.9983 1.29094C67.499 1.01532 68.8463 1.04191 70.4337 0.908935C71.4375 0.824793 72.4172 1.05545 73.0345 0.526448C73.0926 0.444245 73.0824 0.45585 73.1115 0.297246C57.683 0.300148 41.2773 0.311269 25.6127 0.297246Z" fill="var(--fill-0, black)"/>
<path id="Vector_2" d="M8.86198 17.498C10.4769 19.3118 16.3622 23.5472 18.8378 23.2799C19.2426 27.9374 21.3462 30.3768 24.6185 31.7941C26.2014 32.4793 28.8642 33.0001 30.9667 32.3289C34.7761 31.1133 36.391 28.7996 37.8506 25.2198C38.571 23.4549 38.9067 20.6179 38.3097 18.3394C36.0272 9.6259 27.8686 3.18016 19.2645 0.75565C13.2732 -0.931931 4.26991 0.335446 0.776479 3.28315C0.338652 3.65307 0.148523 4.07956 0 4.86968C0.0101596 6.10418 0.987407 7.06064 1.74889 7.56014C2.09287 7.78548 2.46441 7.81981 2.74307 8.09495C3.00529 8.4842 2.74259 9.15438 2.89643 9.7767C3.06479 10.4614 3.31539 11.209 3.6613 11.7646C4.03963 12.3715 4.73628 13.0682 5.34392 13.4463L8.86198 17.498ZM4.68064 4.28217C5.22104 3.52639 7.70045 2.68984 8.70913 2.51432C10.9622 2.12216 13.4207 2.58104 15.0148 2.74351C22.8634 4.47172 29.8773 8.64132 33.9498 14.44C34.6788 15.4787 35.1762 16.7326 35.556 18.1097C35.7364 18.7644 35.7088 19.4714 35.7093 20.2504C35.7093 24.0617 33.898 27.1913 31.5787 28.6598C26.423 31.9237 19.2833 26.6588 21.7119 20.6329C22.3733 18.9922 23.2122 18.0029 25.0007 17.498C27.4932 16.7954 30.5894 18.7988 29.5903 21.0913C29.2324 21.9123 28.9285 22.0236 28.4322 22.1048C27.3432 22.0695 26.7365 21.2823 25.6891 21.4738C23.9006 21.8002 22.4357 23.6555 23.7772 25.5249C24.4052 26.4011 26.3645 26.8344 27.8308 26.3663C29.6228 25.7948 30.9223 24.481 31.5023 22.6967C31.8773 21.5444 31.5526 20.0961 31.1966 19.2567C30.2082 16.9303 26.84 14.6055 23.318 15.8926C21.6983 16.485 20.3186 17.7906 19.6471 19.3331C19.4429 19.9443 19.2388 20.5565 19.0351 21.1677C18.3713 22.0927 16.9645 21.3123 16.2441 20.849C14.8799 19.9714 11.6046 17.1315 11.2331 16.6571C11.5272 14.6393 14.6636 16.2722 16.0211 16.1862C17.1507 15.9173 17.5813 15.0005 17.5813 14.9749C13.055 14.9986 9.23262 13.5687 6.5679 11.5354C5.90995 11.0335 6.08557 10.0611 6.41502 9.7767C7.7227 9.48807 11.2336 10.2864 11.6922 10.312C14.7032 11.003 19.6766 10.7076 21.4062 9.08912C21.4313 9.08912 21.4826 9.03789 21.4826 9.0122C20.6505 9.17129 19.844 9.21004 18.8818 9.24148C18.2451 9.24148 14.0608 8.89087 12.934 8.61669C10.1629 7.94069 7.41405 7.5026 5.42036 5.95477C4.27571 5.06552 4.56744 4.53555 4.68064 4.28217ZM25.6127 0.297246C25.6562 0.53902 25.6799 0.519194 25.7655 0.679249C26.6059 1.01967 27.7936 0.839307 28.9015 0.985336C29.9769 1.12605 31.3059 1.24017 32.4201 1.59654C32.883 1.74451 41.3837 4.3634 43.5989 9.30526C44.252 10.7622 46.8771 15.3796 43.7402 23.538C41.2081 30.1249 37.288 37.5551 28.6852 44.3016C26.3302 46.1488 21.4801 47.1086 17.7347 45.8606C15.2025 45.0173 13.5441 43.4559 10.7744 42.8026C9.78894 42.57 8.69707 43.0139 8.09715 43.2615C6.11508 44.0816 3.76435 46.037 4.88481 49.1478C5.09235 49.7251 5.38455 50.416 5.7266 50.9064C9.10587 55.753 18.7975 52.7438 23.1652 50.83C24.2755 50.3431 25.3171 49.9228 26.3011 49.301C35.6083 43.425 41.2081 33.811 46.7997 24.1493C47.3918 23.126 52.5268 12.6398 53.072 11.7646C55.1077 8.49487 59.4038 2.50029 65.9983 1.29094C67.499 1.01532 68.8463 1.04191 70.4337 0.908935C71.4375 0.824793 72.4172 1.05545 73.0345 0.526448C73.0926 0.444245 73.0824 0.45585 73.1115 0.297246C57.683 0.300148 41.2773 0.311269 25.6127 0.297246Z" fill="var(--fill-0, black)"/>
<path id="Vector_3" d="M67.4326 38.9931L68.704 38.8683C70.4765 34.2006 72.4572 30.9498 73.0203 30.9498C73.1451 30.9498 73.3749 31.0537 73.3749 31.3246C73.3749 31.7418 72.3734 37.0139 72.3734 38.0763C72.3734 38.7644 72.7488 39.202 73.3541 39.202C74.0628 39.202 75.0217 38.7015 75.5219 38.202L75.4595 37.7848C75.2094 37.9308 74.834 38.0347 74.6047 38.0347C74.313 38.0347 74.1669 37.9516 74.1669 37.6392C74.1669 36.9303 75.2931 30.6161 75.2931 30.1161C75.2931 29.4909 74.9593 29.1572 74.3337 29.1572C72.4779 29.1572 70.2472 33.471 69.6009 35.0759H69.5592L70.5186 28.9489L67.6827 29.8454L67.6411 30.2617C67.9743 30.1785 68.3295 30.0953 68.704 30.0122L67.4326 38.9931ZM64.9914 31.0745C64.9914 32.721 63.2608 33.9923 61.6343 34.3878C62.0311 31.8245 62.5937 30.2409 63.7611 30.2409C64.4699 30.2409 64.9914 30.4913 64.9914 31.0745ZM65.9294 36.1595C65.4292 36.7427 63.9701 38.0347 63.1356 38.0347C61.8221 38.0347 61.5095 36.7635 61.5095 35.7219C61.5095 35.513 61.5303 35.3051 61.5512 35.1383C63.6779 34.4507 66.6594 33.0126 66.6594 30.6161C66.6594 29.5948 65.9502 28.9489 64.9081 28.9489C61.9053 28.9489 59.7161 32.971 59.7161 35.6383C59.7161 37.2635 60.2169 39.202 62.0722 39.202C63.8656 39.202 65.1162 37.6392 66.18 36.4095L65.9294 36.1595ZM54.3872 33.763V37.4932C54.3872 38.202 54.1371 38.5768 53.0737 38.7015V38.9931C53.887 38.9931 54.784 38.8683 55.409 38.8683C56.0345 38.8683 56.931 38.9931 57.7442 38.9931V38.7015C56.6809 38.5768 56.4307 38.202 56.4307 37.4932V33.763L59.6832 27.2192C60.1835 26.2192 60.4544 25.8648 61.2474 25.8232V25.5312C60.5797 25.5312 60.079 25.6564 59.5792 25.6564C58.9116 25.6564 58.078 25.5312 57.5357 25.5312V25.8232C58.2444 25.8648 58.5367 26.0108 58.5367 26.3648C58.5367 26.5321 58.5367 26.74 58.3906 27.0736L55.7428 32.6582L52.9068 27.1152C52.7196 26.74 52.6567 26.5108 52.6567 26.3024C52.6567 25.9692 52.9697 25.844 53.6368 25.8232V25.5312C52.9068 25.5312 52.1985 25.6564 51.4894 25.6564C50.7598 25.6564 50.0297 25.5312 49.2794 25.5312V25.8232C50.0297 25.9484 50.3011 26.2811 50.6345 26.8861L54.3872 33.763Z" fill="var(--fill-0, black)"/>
<path id="Vector_4" d="M69.354 54.4557C70.0211 54.7685 70.7922 54.8309 71.397 54.8309C73.8987 54.8309 75.2335 53.0592 75.2335 51.2676C75.2335 49.3083 71.2093 48.0584 71.2093 46.8495C71.2093 46.3282 71.6263 45.8698 72.8774 45.8698C73.6486 45.8698 74.5242 46.0371 75.2121 46.2451L75.4622 44.7238C74.9828 44.6406 74.4826 44.5778 73.9616 44.5778C72.1473 44.5778 69.9166 45.4322 69.9166 47.5787C69.9166 49.8504 73.9407 50.4959 73.9407 52.4132C73.9407 53.1221 73.1691 53.5384 72.0433 53.5384C71.2093 53.5384 70.3336 53.2681 69.6244 52.8513L69.354 54.4557ZM63.0134 54.4557C63.6806 54.7685 64.4522 54.8309 65.057 54.8309C67.5586 54.8309 68.8933 53.0592 68.8933 51.2676C68.8933 49.3083 64.8692 48.0584 64.8692 46.8495C64.8692 46.3282 65.2862 45.8698 66.5373 45.8698C67.3085 45.8698 68.1842 46.0371 68.8721 46.2451L69.1227 44.7238C68.6428 44.6406 68.1426 44.5778 67.621 44.5778C65.8073 44.5778 63.5766 45.4322 63.5766 47.5787C63.5766 49.8504 67.6007 50.4959 67.6007 52.4132C67.6007 53.1221 66.829 53.5384 65.7033 53.5384C64.8692 53.5384 63.9936 53.2681 63.2848 52.8513L63.0134 54.4557ZM60.939 46.7035C60.939 48.3499 59.2089 49.6212 57.5824 50.0167C57.9786 47.4534 58.5418 45.8698 59.7092 45.8698C60.4184 45.8698 60.939 46.1203 60.939 46.7035ZM61.8775 51.7884C61.3772 52.3721 59.9177 53.6641 59.0836 53.6641C57.7701 53.6641 57.4576 52.3928 57.4576 51.3508C57.4576 51.142 57.4784 50.9335 57.4992 50.7671C59.6259 50.0796 62.607 48.6415 62.607 46.2451C62.607 45.2238 61.8983 44.5778 60.8557 44.5778C57.8534 44.5778 55.6642 48.5999 55.6642 51.2676C55.6642 52.8929 56.1645 54.8309 58.0203 54.8309C59.8132 54.8309 61.0642 53.2681 62.1276 52.0385L61.8775 51.7884ZM49.9119 54.6225L51.4345 54.4978L51.747 53.0592C52.6018 49.2459 53.7697 46.495 55.312 46.495C55.6667 46.495 55.8959 46.495 56.1461 46.5367L56.3967 44.5778C54.5617 44.5778 53.8945 45.3282 52.4557 48.996L52.4141 48.9539L53.0189 44.5778L50.1834 45.4743L50.1418 45.8906C50.4751 45.8075 50.8292 45.7238 51.2047 45.6406L49.9119 54.6225ZM39.8859 53.4553C39.8859 54.0389 39.6354 54.2057 38.8226 54.3305V54.6225C39.2604 54.6225 40.1153 54.4978 40.9077 54.4978C41.6997 54.4978 42.5545 54.6225 42.9924 54.6225V54.3305C42.1791 54.2057 41.929 54.0389 41.929 53.4553V42.3274H42.4713C45.2855 42.3274 47.1413 42.7234 47.1413 45.3906C47.1413 47.3494 45.6402 48.4331 43.6803 48.4331H42.4292C42.2415 48.4331 42.138 48.4955 42.138 48.5999C42.138 48.7044 42.1999 48.7459 42.2628 48.8083C42.6382 49.1628 43.764 49.3504 44.2643 49.3504C47.0789 49.3504 49.0595 47.7247 49.0595 45.1822C49.0595 42.8689 47.7045 41.2853 44.9522 41.2853H38.8226V41.5769C39.6354 41.7021 39.8859 41.869 39.8859 42.4521V53.4553Z" fill="var(--fill-0, black)"/>
</g>
<defs>
<clipPath id="clip0_0_45">
<rect width="75.5224" height="55" fill="white"/>
</clipPath>
</defs>
</svg>
