<svg width="100%" height="100%" viewBox="0 0 59.1954 40" fill="none" xmlns="http://www.w3.org/2000/svg">
  <g id="Frame 2">
    <g id="Vector">
      <path d="M49.7011 39.7701H45.977V22.7586H52.5517C56.6896 22.7586 59.0344 24.7586 59.0344 28.2759C59.0344 30.4828 58.0919 32.046 56.2069 33.0115L59.1954 39.7701H55.1264L52.5747 33.8161H49.7011V39.7701ZM49.7011 26.069V30.5517H52.5287C54.1609 30.5517 55.1034 29.7241 55.1034 28.2759C55.1034 26.8506 54.2069 26.069 52.5517 26.069H49.7011Z" fill="#191921"/>
      <path d="M0.45978 12.138V10.9426H4.04599V12.138C4.04599 13.0346 4.55173 13.8622 5.97702 13.8622C7.35633 13.8622 7.88506 13.1495 7.88506 12.0001V9.86559e-05H11.6092V12.23C11.6092 15.1495 9.44828 17.3104 6.023 17.3104C2.27587 17.3104 0.45978 15.0805 0.45978 12.138Z" fill="#191921"/>
      <path d="M16.816 17.0116H12.9309L18.9999 9.86559e-05H22.6321L28.6781 17.0116H24.724L23.5286 13.4254H18.0344L16.816 17.0116ZM20.3332 6.66676L19.1148 10.2989H22.4712L21.2528 6.66676C21.0689 6.09205 20.862 5.42538 20.793 5.01159C20.724 5.40239 20.5401 6.04607 20.3332 6.66676Z" fill="#191921"/>
      <path d="M36.839 17.0115H30.1723V0H36.6091C41.5976 0 45.0688 3.49425 45.0688 8.55171C45.0688 13.5172 41.6895 17.0115 36.839 17.0115ZM36.2413 3.44827H33.8964V13.5632H36.4711C39.4137 13.5632 41.1378 11.7011 41.1378 8.55171C41.1378 5.33333 39.3217 3.44827 36.2413 3.44827Z" fill="#191921"/>
      <path d="M10.8046 39.7701H0V22.7586H10.8046V26.2069H3.72414V29.5402H9.99999V32.8046H3.72414V36.3218H10.8046V39.7701Z" fill="#191921"/>
      <path d="M16.6092 39.7701H12.931V22.7586H16.6092L23.7816 33.5862V22.7586H27.4598V39.7701H23.7816L16.6092 28.9655V39.7701Z" fill="#191921"/>
      <path d="M38.7931 35.6897C38.7931 38.0702 36.8633 40 34.4827 40C32.1022 40 30.1724 38.0702 30.1724 35.6897C30.1724 33.3091 32.1022 31.3793 34.4827 31.3793C36.8633 31.3793 38.7931 33.3091 38.7931 35.6897Z" fill="#007EFF"/>
    </g>
  </g>
</svg>
