<svg preserveAspectRatio="none" width="100%" height="100%" overflow="visible" style="display: block;" viewBox="0 0 805.133 739" fill="none" xmlns="http://www.w3.org/2000/svg">
<path id="Vector" d="M783.942 354.233C843.605 247.422 770.553 119.142 648.893 107.025L604.498 102.602C572.119 99.3733 543.197 85.3448 519.168 58.3697C435.533 -35.5024 279.799 -12.3218 228.533 100.457C216.047 127.923 193.469 149.894 164.959 162.326L102.415 189.594C2.71782 233.059 -31.0837 353.662 31.8898 439.914L71.5741 494.265C80.1931 506.072 86.4848 519.122 90.2762 533.053L109.983 605.504C136.979 704.754 249.553 758.385 347.814 716.671L356.227 713.1C381.232 702.484 409.68 699.911 436.319 705.841L565.342 734.569C691.039 762.557 801.834 653.468 773.765 533.561L757.435 463.818C750.826 435.586 755.039 405.98 769.299 380.455L783.942 354.233Z" fill="var(--fill-0, #007EFF)" fill-opacity="0.1"/>
</svg>
