<svg preserveAspectRatio="none" width="100%" height="100%" overflow="visible" style="display: block;" viewBox="0 0 751 751" fill="none" xmlns="http://www.w3.org/2000/svg">
<g id="214" clip-path="url(#clip0_0_20)">
<path id="Vector" d="M0 0H214.853V215.186H0V0ZM268.073 0H482.927V215.186H268.073V0ZM643.573 0C584.338 0 536.147 48.1916 536.147 107.427V107.761C536.147 166.996 584.338 215.186 643.573 215.186C702.808 215.186 751 166.996 751 107.761V107.427C751 48.1916 702.808 0 643.573 0ZM107.427 267.908C48.1916 267.908 0 316.099 0 375.334V375.669C0 434.904 48.1916 483.094 107.427 483.094C166.662 483.094 214.853 434.904 214.853 375.669V375.334C214.853 316.099 166.662 267.908 107.427 267.908ZM268.073 267.908H482.927V483.092H268.073V267.908ZM536.147 267.908H751V483.092H536.147V267.908ZM0 535.815H214.853V751H0V535.815ZM375.5 535.815C316.265 535.815 268.073 584.005 268.073 643.24V643.575C268.073 702.81 316.265 751 375.5 751C434.735 751 482.927 702.81 482.927 643.575V643.24C482.927 584.005 434.735 535.815 375.5 535.815ZM536.147 535.815H751V751H536.147V535.815Z" fill="var(--fill-0, #007EFF)" fill-opacity="0.18"/>
</g>
<defs>
<clipPath id="clip0_0_20">
<rect width="751" height="751" fill="white"/>
</clipPath>
</defs>
</svg>
